Coordinates
version=1
nRows=4
nColumns=107
inDegrees=yes

Units are S.I. units (second, meters, Newtons, ...)
If the header above contains a line with 'inDegrees', this indicates whether rotational values are in degrees (yes) or radians (no).

endheader
time	sternoclavicular_r2	sternoclavicular_r3	unrotscap_r3	unrotscap_r2	acromioclavicular_r2	acromioclavicular_r3	acromioclavicular_r1	unrothum_r1	unrothum_r3	unrothum_r2	elv_angle	shoulder_elv	shoulder1_r2	shoulder_rot	elbow_flexion	pro_sup	deviation	flexion	proximal_distal_r1	proximal_distal_r3	cmc_flexion	cmc_abduction	mp_flexion	ip_flexion	mcp2_flexion	mcp2_abduction	pm2_flexion	md2_flexion	mcp3_flexion	mcp3_abduction	pm3_flexion	md3_flexion	mcp4_flexion	mcp4_abduction	pm4_flexion	md4_flexion	mcp5_flexion	mcp5_abduction	pm5_flexion	md5_flexion	bicpt_tx	bicpt_ty	bicpt_tz	bicpt2_tx	bicpt2_ty	bicpt2_tz	ptpt_tx	ptpt_ty	ptpt_tz	FCUpt_tx	FCUpt_ty	FCUpt_tz	EDCpt_tx	EDCpt_ty	EDCpt_tz	APLpt_tx	APLpt_ty	APLpt_tz	FPLpt_tx	FPLpt_ty	FPLpt_tz	FPLpt2_tx	FPLpt2_ty	FPLpt2_tz	PEC1pt2_tx	PEC1pt2_ty	PEC1pt2_tz	PEC1pt3_tx	PEC1pt3_ty	PEC1pt3_tz	PEC2pt2_tx	PEC2pt2_ty	PEC2pt2_tz	PEC2pt3_tx	PEC2pt3_ty	PEC2pt3_tz	PEC3pt2_tx	PEC3pt2_ty	PEC3pt2_tz	PEC3pt3_tx	PEC3pt3_ty	PEC3pt3_tz	DELT2pt2a_tx	DELT2pt2a_ty	DELT2pt2a_tz	DELT2pt2_tx	DELT2pt2_ty	DELT2pt2_tz	LAT1pt2_tx	LAT1pt2_ty	LAT1pt2_tz	LAT1pt3_tx	LAT1pt3_ty	LAT1pt3_tz	LAT2pt2_tx	LAT2pt2_ty	LAT2pt2_tz	LAT2pt3_tx	LAT2pt3_ty	LAT2pt3_tz	LAT3pt2_tx	LAT3pt2_ty	LAT3pt2_tz	LAT3pt3_tx	LAT3pt3_ty	LAT3pt3_tz
      1.16666667	     -0.30850034	      0.13066618	     -0.13066618	      0.30850034	     -0.06246504	      0.50482050	      0.22691334	     -0.22691334	     -0.50482050	      0.06246504	    115.44738006	     73.04019662	     -2.01493689	    -87.11925117	     25.38333693	     56.98355727	      0.41796332	     -1.10309765	      0.42424738	     -0.55154882	    -11.63199860	     22.06024035	    -20.36665748	      8.30310576	     34.05318160	     -8.18550201	      9.86113970	    -26.91900287	     13.49620076	    -11.99997329	     29.09650734	     20.52170134	    -13.10534480	    -13.14321649	     34.47009646	     27.79848635	    -36.27581467	    -13.82475796	     12.52343001	      5.22893774	      0.00073960	     -0.03050932	     -0.00476862	      0.01627620	     -0.01709551	     -0.00545480	      0.00333956	     -0.06762254	     -0.00464033	      0.00953463	     -0.18310081	     -0.00039837	     -0.00683801	      0.00211563	     -0.00005367	      0.00010960	      0.00004384	      0.00021920	      0.00014029	      0.00042086	      0.00023673	     -0.00183479	      0.00036596	      0.00043915	      0.00239410	      0.00839963	      0.00584322	     -0.00783154	      0.01890931	     -0.01793544	      0.00239410	      0.00839963	      0.00584322	      0.00052751	      0.01752966	     -0.00921119	      0.00382778	      0.00467093	      0.01566647	      0.00000000	      0.00713076	      0.00000000	     -0.00685767	     -0.03169136	     -0.00587575	      0.02237943	     -0.00281461	     -0.04384378	     -0.00085214	      0.01428343	     -0.00584322	      0.00235352	      0.02061358	     -0.01704273	     -0.00572149	      0.01237627	     -0.00523455	     -0.01192991	      0.02613218	     -0.02925668	     -0.02239901	      0.01383707	     -0.00701998	     -0.01485152	      0.03018997	     -0.03656071
      1.20000000	     -0.30778980	      0.13036523	     -0.13036523	      0.30778980	     -0.06232117	      0.50365780	      0.22639072	     -0.22639072	     -0.50365780	      0.06232117	    115.43596919	     72.87197094	     -2.01473774	    -87.88165642	     25.93504771	     58.54813275	      0.42482370	     -1.16319764	      0.42882541	     -0.58159882	    -11.76008241	     22.40778106	    -20.25896987	      8.24577918	     33.91115381	     -9.46841670	      9.86501104	    -26.92685835	      9.53438304	    -12.09915671	     27.06548546	     19.90045710	    -17.23183934	    -13.06359119	     32.36271666	     27.16696675	    -37.75510675	    -13.80961588	     12.11735005	      5.12705690	      0.00075785	     -0.03057255	     -0.00477880	      0.01621562	     -0.01724538	     -0.00524886	      0.00322395	     -0.06769729	     -0.00476637	      0.00970072	     -0.18306039	     -0.00038858	     -0.00702576	      0.00218784	     -0.00007994	      0.00005702	      0.00002281	      0.00011404	      0.00007298	      0.00021895	      0.00012316	     -0.00187840	      0.00037083	      0.00044500	      0.00238858	      0.00838028	      0.00582976	     -0.00781350	      0.01886576	     -0.01789413	      0.00238858	      0.00838028	      0.00582976	      0.00052630	      0.01748929	     -0.00918997	      0.00382122	      0.00466017	      0.01564959	      0.00000000	      0.00709776	      0.00000000	     -0.00684187	     -0.03161837	     -0.00584832	      0.02213122	     -0.00283767	     -0.04428952	     -0.00085017	      0.01425053	     -0.00582976	      0.00234810	      0.02056611	     -0.01700347	     -0.00570831	      0.01234776	     -0.00522250	     -0.01190243	      0.02607199	     -0.02918930	     -0.02234742	      0.01380520	     -0.00700381	     -0.01481731	      0.03012044	     -0.03647650
      1.23333333	     -0.30604772	      0.12962737	     -0.12962737	      0.30604772	     -0.06196844	      0.50080711	      0.22510935	     -0.22510935	     -0.50080711	      0.06196844	    115.37175962	     72.45951771	     -2.01361707	    -88.22300432	     27.09560021	     59.62554349	      0.42512010	     -1.18615131	      0.42902161	     -0.59307565	    -11.94223500	     21.92260547	    -20.54873596	      8.01720984	     31.91858251	    -10.57047585	      9.32996123	    -27.12319483	      5.67802698	    -11.98547915	     24.74798680	     19.11723399	    -21.20296979	    -12.80697595	     29.89949143	     26.32659310	    -40.15497852	    -13.63935350	     11.60591751	      5.09711763	      0.00079624	     -0.03070557	     -0.00480023	      0.01617050	     -0.01756065	     -0.00510496	      0.00314435	     -0.06774877	     -0.00485316	      0.00981555	     -0.18303212	     -0.00038071	     -0.00715505	      0.00223803	     -0.00009884	      0.00003535	      0.00001414	      0.00007069	      0.00004524	      0.00013572	      0.00007635	     -0.00194112	      0.00037779	      0.00045335	      0.00237506	      0.00833285	      0.00579677	     -0.00776928	      0.01875898	     -0.01779285	      0.00237506	      0.00833285	      0.00579677	      0.00052332	      0.01739030	     -0.00913796	      0.00380507	      0.00463379	      0.01560790	      0.00000000	      0.00701717	      0.00000000	     -0.00680315	     -0.03143941	     -0.00578135	      0.02201731	     -0.00284788	     -0.04448725	     -0.00084536	      0.01416987	     -0.00579677	      0.00233481	      0.02044970	     -0.01690724	     -0.00567600	      0.01227787	     -0.00519294	     -0.01183506	      0.02592443	     -0.02902409	     -0.02222094	      0.01372706	     -0.00696417	     -0.01473345	      0.02994996	     -0.03627004
      1.26666667	     -0.30378940	      0.12867085	     -0.12867085	      0.30378940	     -0.06151117	      0.49711166	      0.22344827	     -0.22344827	     -0.49711166	      0.06151117	    115.22214101	     71.92483964	     -2.01100573	    -88.10211305	     28.50228314	     60.57744732	      0.42520212	     -1.18352041	      0.42907579	     -0.59176020	    -12.03172017	     20.46984735	    -21.38249765	      7.51220768	     29.31296721	    -11.35907285	      9.45342832	    -27.22162137	      2.48584346	    -12.02205110	     22.52339717	     18.19936332	    -24.23803240	    -12.51324616	     26.96109664	     25.12259022	    -43.29430147	    -13.42447552	     11.71756299	      5.24326320	      0.00084277	     -0.03086680	     -0.00482620	      0.01612853	     -0.01794279	     -0.00497653	      0.00307401	     -0.06779425	     -0.00492984	      0.00991729	     -0.18300689	     -0.00037306	     -0.00726928	      0.00228265	     -0.00011604	      0.00003788	      0.00001515	      0.00007577	      0.00004849	      0.00014548	      0.00008183	     -0.00197207	      0.00038121	      0.00045745	      0.00235754	      0.00827136	      0.00575399	     -0.00771195	      0.01862056	     -0.01766156	      0.00235754	      0.00827136	      0.00575399	      0.00051946	      0.01726198	     -0.00907053	      0.00378405	      0.00459960	      0.01555323	      0.00000000	      0.00691341	      0.00000000	     -0.00675295	     -0.03120742	     -0.00569510	      0.02205789	     -0.00284427	     -0.04441738	     -0.00083912	      0.01406531	     -0.00575399	      0.00231758	      0.02029881	     -0.01678248	     -0.00563412	      0.01218727	     -0.00515462	     -0.01174773	      0.02573313	     -0.02880992	     -0.02205697	      0.01362577	     -0.00691278	     -0.01462473	      0.02972896	     -0.03600241
